<mxfile host="app.diagrams.net" modified="2021-12-17T00:37:41.845Z" agent="5.0 (Windows NT 10.0; Win64; x64) AppleWebKit/537.36 (KHTML, like Gecko) Chrome/96.0.4664.110 Safari/537.36" etag="-Pc5vjGxNytwU37_eZFJ" version="15.9.6" type="github" pages="2">
  <diagram id="hd5o-zbOTmuF9NX8m5Dz" name="ER Diagram">
    <mxGraphModel dx="1469" dy="-8" grid="0" gridSize="10" guides="1" tooltips="1" connect="1" arrows="1" fold="1" page="1" pageScale="1" pageWidth="1169" pageHeight="827" math="0" shadow="0">
      <root>
        <mxCell id="0" />
        <mxCell id="1" parent="0" />
        <mxCell id="Bgj_-nSEFGO-PrB7RVFd-2" value="ER Diagram" style="text;html=1;strokeColor=none;fillColor=none;align=center;verticalAlign=middle;whiteSpace=wrap;rounded=0;fontStyle=1;fontSize=20;" vertex="1" parent="1">
          <mxGeometry x="22" y="845" width="140" height="30" as="geometry" />
        </mxCell>
      </root>
    </mxGraphModel>
  </diagram>
  <diagram id="4CtJ401IrEmegCLP5Ub-" name="Relational Database Schema">
    <mxGraphModel dx="1102" dy="614" grid="0" gridSize="10" guides="1" tooltips="1" connect="1" arrows="1" fold="1" page="1" pageScale="1" pageWidth="850" pageHeight="1100" math="0" shadow="0">
      <root>
        <mxCell id="KppEOSR4Ip3MGHpC3uJf-0" />
        <mxCell id="KppEOSR4Ip3MGHpC3uJf-1" parent="KppEOSR4Ip3MGHpC3uJf-0" />
        <mxCell id="FHpes5VMrxjUR-pJXJrR-0" value="Relational Database Schema" style="text;html=1;strokeColor=none;fillColor=none;align=center;verticalAlign=middle;whiteSpace=wrap;rounded=0;fontStyle=1;fontSize=20;" vertex="1" parent="KppEOSR4Ip3MGHpC3uJf-1">
          <mxGeometry x="5" y="10" width="316" height="30" as="geometry" />
        </mxCell>
      </root>
    </mxGraphModel>
  </diagram>
</mxfile>
